<?xml version="1.0" encoding="utf-8"?>
<!-- Generator: Adobe Illustrator 25.2.0, SVG Export Plug-In . SVG Version: 6.00 Build 0)  -->
<svg version="1.1" id="Layer_1" xmlns="http://www.w3.org/2000/svg" xmlns:xlink="http://www.w3.org/1999/xlink" x="0px" y="0px"
	 viewBox="0 0 24 24" style="enable-background:new 0 0 24 24;" xml:space="preserve">

<g>
	<path class="st0" d="M12,18.8c-0.4,0-0.8-0.3-0.8-0.8V6c0-0.4,0.3-0.8,0.8-0.8s0.8,0.3,0.8,0.8v12C12.8,18.4,12.4,18.8,12,18.8z"/>
</g>
<g>
	<path class="st0" d="M18,12.8h-2c-0.4,0-0.8-0.3-0.8-0.8s0.3-0.8,0.8-0.8h2c0.4,0,0.8,0.3,0.8,0.8S18.4,12.8,18,12.8z"/>
</g>
<g>
	<path class="st0" d="M11.7,12.8H6c-0.4,0-0.8-0.3-0.8-0.8s0.3-0.8,0.8-0.8h5.7c0.4,0,0.8,0.3,0.8,0.8S12.1,12.8,11.7,12.8z"/>
</g>
<g>
	<path class="st0" d="M12,18.8c-0.4,0-0.8-0.3-0.8-0.8V6c0-0.4,0.3-0.8,0.8-0.8s0.8,0.3,0.8,0.8v12C12.8,18.4,12.4,18.8,12,18.8z"/>
</g>
</svg>
