<?xml version="1.0" encoding="utf-8"?>
<!-- Generator: Adobe Illustrator 25.2.0, SVG Export Plug-In . SVG Version: 6.00 Build 0)  -->
<svg version="1.1" id="Layer_1" xmlns="http://www.w3.org/2000/svg" xmlns:xlink="http://www.w3.org/1999/xlink" x="0px" y="0px"
	 viewBox="0 0 24 24" style="enable-background:new 0 0 24 24;" xml:space="preserve">
<path class="st0" d="M15,22.8H9c-2.8,0-4.8-2-4.8-4.8V6c0-2.8,2-4.8,4.8-4.8h6c2.8,0,4.8,2,4.8,4.8v12C19.8,20.8,17.8,22.8,15,22.8z
	 M9,2.8C6.8,2.8,5.8,4.4,5.8,6v12c0,1.6,1,3.2,3.2,3.2h6c2.2,0,3.2-1.6,3.2-3.2V6c0-1.6-1-3.2-3.2-3.2H9z"/>
<path class="st0" d="M19,16.8H5c-0.4,0-0.8-0.3-0.8-0.8s0.3-0.8,0.8-0.8h14c0.4,0,0.8,0.3,0.8,0.8S19.4,16.8,19,16.8z"/>
<path class="st0" d="M2,20.8c-0.4,0-0.8-0.3-0.8-0.8V4c0-0.4,0.3-0.8,0.8-0.8S2.8,3.6,2.8,4v16C2.8,20.4,2.4,20.8,2,20.8z"/>
<path class="st0" d="M22,20.8c-0.4,0-0.8-0.3-0.8-0.8V4c0-0.4,0.3-0.8,0.8-0.8s0.8,0.3,0.8,0.8v16C22.8,20.4,22.4,20.8,22,20.8z"/>
</svg>
