<?xml version="1.0" encoding="utf-8"?>
<!-- Generator: Adobe Illustrator 25.2.0, SVG Export Plug-In . SVG Version: 6.00 Build 0)  -->
<svg version="1.1" id="Layer_1" xmlns="http://www.w3.org/2000/svg" xmlns:xlink="http://www.w3.org/1999/xlink" x="0px" y="0px"
	 viewBox="0 0 24 24" style="enable-background:new 0 0 24 24;" xml:space="preserve">
<path class="st0" d="M18,16c0.5,0,1,0.5,1,1v1c0,2.2-1.5,4-4,4H9c-2.5,0-4-1.8-4-4v-1c0-0.5,0.4-1,1-1H18z"/>
<path class="st0" d="M19,6v7.5c0,0.6-0.5,1-1,1H6c-0.6,0-1-0.4-1-1V6c0-2.2,1.5-4,4-4h6C17.5,2,19,3.8,19,6z"/>
<path class="st0" d="M3,20.8c-0.4,0-0.8-0.3-0.8-0.8V4c0-0.4,0.3-0.8,0.8-0.8S3.8,3.6,3.8,4v16C3.8,20.4,3.4,20.8,3,20.8z"/>
<path class="st0" d="M21,20.8c-0.4,0-0.8-0.3-0.8-0.8V4c0-0.4,0.3-0.8,0.8-0.8s0.8,0.3,0.8,0.8v16C21.8,20.4,21.4,20.8,21,20.8z"/>
</svg>
