<?xml version="1.0" encoding="utf-8"?>
<!-- Generator: Adobe Illustrator 25.2.0, SVG Export Plug-In . SVG Version: 6.00 Build 0)  -->
<svg version="1.1" id="Layer_1" xmlns="http://www.w3.org/2000/svg" xmlns:xlink="http://www.w3.org/1999/xlink" x="0px" y="0px"
	 viewBox="0 0 24 24" style="enable-background:new 0 0 24 24;" xml:space="preserve">
<g>
	<path class="st0" d="M18,10.8c-0.4,0-0.8-0.3-0.8-0.8V8c0-3.2-0.9-5.2-5.2-5.2S6.8,4.8,6.8,8v2c0,0.4-0.3,0.8-0.8,0.8
		S5.2,10.4,5.2,10V8c0-2.9,0.7-6.8,6.8-6.8c6,0,6.8,3.9,6.8,6.8v2C18.8,10.4,18.4,10.8,18,10.8z"/>
</g>
<g>
	<path class="st0" d="M17,22.8H7c-4.4,0-5.8-1.3-5.8-5.8v-2c0-4.4,1.3-5.8,5.8-5.8h10c4.4,0,5.8,1.3,5.8,5.8v2
		c0,0.4-0.3,0.8-0.8,0.8s-0.8-0.3-0.8-0.8v-2c0-3.6-0.7-4.2-4.2-4.2H7c-3.6,0-4.2,0.7-4.2,4.2v2c0,3.6,0.7,4.2,4.2,4.2h10
		c1.7,0,2.7-0.2,3.3-0.6c0.3-0.2,0.8-0.2,1,0.2c0.2,0.3,0.2,0.8-0.2,1C20.3,22.5,19,22.8,17,22.8z"/>
</g>
<g>
	<path class="st0" d="M16,17c-0.6,0-1-0.4-1-1s0.4-1,1-1h0c0.6,0,1,0.4,1,1S16.6,17,16,17z"/>
</g>
<g>
	<path class="st0" d="M12,17c-0.6,0-1-0.4-1-1s0.4-1,1-1h0c0.6,0,1,0.4,1,1S12.6,17,12,17z"/>
</g>
<g>
	<path class="st0" d="M8,17c-0.6,0-1-0.4-1-1s0.4-1,1-1h0c0.6,0,1,0.4,1,1S8.6,17,8,17z"/>
</g>
</svg>
