<?xml version="1.0" encoding="utf-8"?>
<!-- Generator: Adobe Illustrator 25.2.0, SVG Export Plug-In . SVG Version: 6.00 Build 0)  -->
<svg version="1.1" id="Layer_1" xmlns="http://www.w3.org/2000/svg" xmlns:xlink="http://www.w3.org/1999/xlink" x="0px" y="0px"
	 viewBox="0 0 24 24" style="enable-background:new 0 0 24 24;" xml:space="preserve">
<path class="st0" d="M16.2,2H7.8C4.2,2,2,4.2,2,7.8v8.4C2,19.8,4.2,22,7.8,22h8.4c3.6,0,5.8-2.2,5.8-5.8V7.8C22,4.2,19.8,2,16.2,2z
	 M17,17.2H7c-0.4,0-0.8-0.3-0.8-0.8s0.3-0.8,0.8-0.8h10c0.4,0,0.8,0.3,0.8,0.8S17.4,17.2,17,17.2z M17,12.8H7
	c-0.4,0-0.8-0.3-0.8-0.8s0.3-0.8,0.8-0.8h10c0.4,0,0.8,0.3,0.8,0.8S17.4,12.8,17,12.8z M17,8.2H7c-0.4,0-0.8-0.3-0.8-0.8
	S6.6,6.8,7,6.8h10c0.4,0,0.8,0.3,0.8,0.8S17.4,8.2,17,8.2z"/>
</svg>
