<?xml version="1.0" encoding="utf-8"?>
<!-- Generator: Adobe Illustrator 25.2.0, SVG Export Plug-In . SVG Version: 6.00 Build 0)  -->
<svg version="1.1" id="Layer_1" xmlns="http://www.w3.org/2000/svg" xmlns:xlink="http://www.w3.org/1999/xlink" x="0px" y="0px"
	 viewBox="0 0 24 24" style="enable-background:new 0 0 24 24;" xml:space="preserve">
<g>
	<path class="st0" d="M18.1,13.8H17c-0.4,0-0.8-0.3-0.8-0.8v-0.8c0-3.3-1.2-4.5-4.5-4.5H11c-0.4,0-0.8-0.3-0.8-0.8V5.9
		c0-3.2,1.4-4.6,4.6-4.6h3.3c3.2,0,4.6,1.4,4.6,4.6v3.3C22.7,12.3,21.3,13.8,18.1,13.8z M17.7,12.2h0.4c2.3,0,3.1-0.8,3.1-3.1V5.9
		c0-2.3-0.8-3.1-3.1-3.1h-3.3c-2.3,0-3.1,0.8-3.1,3.1v0.4C15.9,6.2,17.7,8.1,17.7,12.2z"/>
</g>
<g>
	<path class="st0" d="M11.7,22.8H7.2c-4.1,0-6-1.9-6-6V16c0-0.4,0.3-0.8,0.8-0.8s0.8,0.3,0.8,0.8v0.7c0,3.3,1.2,4.5,4.5,4.5h4.5
		c3.3,0,4.5-1.2,4.5-4.5v-4.5c0-3.3-1.2-4.5-4.5-4.5H7.2c-3.3,0-4.5,1.2-4.5,4.5C2.7,12.7,2.4,13,2,13s-0.8-0.3-0.8-0.8
		c0-4.1,1.9-6,6-6h4.5c4.1,0,6,1.9,6,6v4.5C17.7,20.9,15.9,22.8,11.7,22.8z"/>
</g>
</svg>
