<?xml version="1.0" encoding="utf-8"?>
<!-- Generator: Adobe Illustrator 25.2.0, SVG Export Plug-In . SVG Version: 6.00 Build 0)  -->
<svg version="1.1" id="Layer_1" xmlns="http://www.w3.org/2000/svg" xmlns:xlink="http://www.w3.org/1999/xlink" x="0px" y="0px"
	 viewBox="0 0 24 24" style="enable-background:new 0 0 24 24;" xml:space="preserve">
<path class="st0" d="M22,5.5v4c0,1.8-1.3,3.2-3,3.5c-0.3,0-0.5-0.2-0.5-0.5v-0.2c0-3.7-3-6.8-6.7-6.8h-0.2C11.2,5.5,11,5.3,11,5
	c0.2-1.7,1.7-3,3.5-3h4C20.4,2,22,3.6,22,5.5z"/>
<path class="st0" d="M11.7,7H11H7c-2.8,0-5,2.2-5,5v5c0,2.8,2.2,5,5,5h5c2.8,0,5-2.2,5-5v-4v-0.8C17,9.4,14.6,7,11.7,7z"/>
</svg>
