<?xml version="1.0" encoding="utf-8"?>
<!-- Generator: Adobe Illustrator 25.2.0, SVG Export Plug-In . SVG Version: 6.00 Build 0)  -->
<svg version="1.1" id="Layer_1" xmlns="http://www.w3.org/2000/svg" xmlns:xlink="http://www.w3.org/1999/xlink" x="0px" y="0px"
	 viewBox="0 0 24 24" style="enable-background:new 0 0 24 24;" xml:space="preserve">
<path class="st0" d="M13.9,2.9L9.2,2.1C5.3,1.5,3.5,2.8,2.9,6.8l-0.7,4.7c-0.4,2.6,0,4.2,1.5,5.2c0.8,0.5,1.8,0.9,3.2,1.1l4.7,0.7
	c3.9,0.6,5.7-0.7,6.3-4.6l0.7-4.7c0.1-0.8,0.2-1.5,0.1-2.1C18.5,4.6,17,3.4,13.9,2.9z M8.2,9.3c-1.2,0-2.1-1-2.1-2.1
	c0-1.2,1-2.1,2.1-2.1c1.2,0,2.1,1,2.1,2.1C10.4,8.4,9.4,9.3,8.2,9.3z"/>
<path class="st0" d="M20.5,13.5L19,18c-1.2,3.8-3.3,4.8-7,3.5L7.5,20c-1.4-0.5-2.4-1-3.1-1.8c0.6,0.2,1.4,0.4,2.2,0.6l4.7,0.7
	c0.6,0.1,1.2,0.1,1.8,0.1c3.3,0,5.1-1.8,5.7-5.6l0.7-4.7c0.1-0.6,0.1-1.1,0.1-1.6C21.2,9.1,21.4,10.8,20.5,13.5z"/>
</svg>
