<?xml version="1.0" encoding="utf-8"?>
<!-- Generator: Adobe Illustrator 25.2.0, SVG Export Plug-In . SVG Version: 6.00 Build 0)  -->
<svg version="1.1" id="Layer_1" xmlns="http://www.w3.org/2000/svg" xmlns:xlink="http://www.w3.org/1999/xlink" x="0px" y="0px"
	 viewBox="0 0 24 24" style="enable-background:new 0 0 24 24;" xml:space="preserve">
<g>
	<path class="st0" d="M12,22.7c-1.1,0-2.2-0.4-3.1-1.3l-6.4-6.4c-1.7-1.7-1.7-4.5,0-6.2l6.4-6.4c1.7-1.7,4.5-1.7,6.2,0l6.4,6.4
		c1.7,1.7,1.7,4.5,0,6.2l-6.4,6.4C14.2,22.3,13.1,22.7,12,22.7z M12,2.7c-0.7,0-1.5,0.3-2,0.8L3.6,10c-1.1,1.1-1.1,2.9,0,4l6.4,6.4
		c1.1,1.1,2.9,1.1,4,0l6.4-6.4c1.1-1.1,1.1-2.9,0-4.1L14,3.6C13.5,3,12.7,2.7,12,2.7z"/>
</g>
<g>
	<path class="st0" d="M17.8,18.5c-0.2,0-0.4-0.1-0.5-0.2L5.7,6.8C5.4,6.5,5.4,6,5.7,5.7s0.8-0.3,1.1,0l11.5,11.5
		c0.3,0.3,0.3,0.8,0,1.1C18.1,18.4,17.9,18.5,17.8,18.5z"/>
</g>
<g>
	<path class="st0" d="M6.2,18.5c-0.2,0-0.4-0.1-0.5-0.2c-0.3-0.3-0.3-0.8,0-1.1L17.2,5.7c0.3-0.3,0.8-0.3,1.1,0s0.3,0.8,0,1.1
		L6.8,18.3C6.6,18.4,6.4,18.5,6.2,18.5z"/>
</g>
</svg>
