<?xml version="1.0" encoding="utf-8"?>
<!-- Generator: Adobe Illustrator 25.2.0, SVG Export Plug-In . SVG Version: 6.00 Build 0)  -->
<svg version="1.1" id="Layer_1" xmlns="http://www.w3.org/2000/svg" xmlns:xlink="http://www.w3.org/1999/xlink" x="0px" y="0px"
	 viewBox="0 0 24 24" style="enable-background:new 0 0 24 24;" xml:space="preserve">
<g>
	<path class="st0" d="M3.5,18.8c-0.4,0-0.8-0.3-0.8-0.8V7c0-4.4,1.3-5.8,5.8-5.8h7c4.4,0,5.8,1.3,5.8,5.8v10c0,0.2,0,0.3,0,0.5
		c0,0.4-0.4,0.7-0.8,0.7c-0.4,0-0.7-0.4-0.7-0.8c0-0.1,0-0.2,0-0.4V7c0-3.6-0.7-4.2-4.2-4.2h-7C4.9,2.8,4.2,3.4,4.2,7v11
		C4.2,18.4,3.9,18.8,3.5,18.8z"/>
</g>
<g>
	<path class="st0" d="M17,22.8H7c-2.3,0-4.2-1.9-4.2-4.2v-0.7c0-2,1.6-3.6,3.6-3.6h14.1c0.4,0,0.8,0.3,0.8,0.8v3.5
		C21.2,20.8,19.3,22.8,17,22.8z M6.4,15.8c-1.2,0-2.1,0.9-2.1,2.1v0.7c0,1.5,1.2,2.8,2.8,2.8h10c1.5,0,2.8-1.2,2.8-2.8v-2.8H6.4z"/>
</g>
<g>
	<path class="st0" d="M16,7.8H8C7.6,7.8,7.2,7.4,7.2,7S7.6,6.2,8,6.2h8c0.4,0,0.8,0.3,0.8,0.8S16.4,7.8,16,7.8z"/>
</g>
<g>
	<path class="st0" d="M13,11.2H8c-0.4,0-0.8-0.3-0.8-0.8S7.6,9.8,8,9.8h5c0.4,0,0.8,0.3,0.8,0.8S13.4,11.2,13,11.2z"/>
</g>
</svg>
