<?xml version="1.0" encoding="utf-8"?>
<!-- Generator: Adobe Illustrator 25.2.0, SVG Export Plug-In . SVG Version: 6.00 Build 0)  -->
<svg version="1.1" id="Layer_1" xmlns="http://www.w3.org/2000/svg" xmlns:xlink="http://www.w3.org/1999/xlink" x="0px" y="0px"
	 viewBox="0 0 24 24" style="enable-background:new 0 0 24 24;" xml:space="preserve">

<g>
	<path class="st0" d="M12,22.1c-0.3,0-0.6-0.1-0.9-0.2c-1.9-1-5.2-2.1-7.2-2.4l-0.3,0c-1.3-0.2-2.4-1.4-2.4-2.7V4.7
		c0-0.8,0.3-1.5,0.9-2c0.6-0.5,1.3-0.8,2.1-0.7c2.2,0.2,5.5,1.3,7.4,2.5l0.2,0.1c0.1,0,0.2,0,0.3,0l0.2-0.1c1.9-1.2,5.2-2.3,7.4-2.5
		c0,0,0.1,0,0.1,0c0.7-0.1,1.5,0.2,2,0.7c0.6,0.5,0.9,1.2,0.9,2V11c0,0.4-0.3,0.8-0.8,0.8s-0.8-0.3-0.8-0.8V4.7
		c0-0.4-0.1-0.7-0.4-0.9c-0.3-0.2-0.6-0.3-1-0.3c0,0-0.1,0-0.1,0c-1.9,0.2-5,1.2-6.7,2.3l-0.2,0.1c-0.5,0.3-1.3,0.3-1.9,0l-0.2-0.1
		C9.1,4.6,6.1,3.6,4.1,3.4c-0.4,0-0.7,0.1-1,0.3C2.9,4,2.8,4.3,2.8,4.7v12.1c0,0.6,0.5,1.2,1.1,1.2l0.3,0c2.2,0.3,5.7,1.4,7.7,2.5
		c0.1,0,0.2,0,0.3,0c2-1.1,5.5-2.2,7.7-2.6l0.3,0c0.6-0.1,1.1-0.6,1.1-1.2V15c0-0.4,0.3-0.8,0.8-0.8s0.8,0.3,0.8,0.8v1.7
		c0,1.3-1.1,2.6-2.4,2.7l-0.3,0c-2.1,0.3-5.4,1.4-7.2,2.4C12.6,22,12.3,22.1,12,22.1z"/>
</g>
<g>
	<path class="st0" d="M12,21.2c-0.4,0-0.8-0.3-0.8-0.8v-15c0-0.4,0.3-0.8,0.8-0.8s0.8,0.3,0.8,0.8v15C12.8,20.9,12.4,21.2,12,21.2z"
		/>
</g>
<g>
	<path class="st0" d="M7.8,9.2H5.5c-0.4,0-0.8-0.3-0.8-0.8s0.3-0.8,0.8-0.8h2.2c0.4,0,0.8,0.3,0.8,0.8S8.2,9.2,7.8,9.2z"/>
</g>
<g>
	<path class="st0" d="M8.5,12.2h-3c-0.4,0-0.8-0.3-0.8-0.8s0.3-0.8,0.8-0.8h3c0.4,0,0.8,0.3,0.8,0.8S8.9,12.2,8.5,12.2z"/>
</g>
</svg>
