<?xml version="1.0" encoding="utf-8"?>
<!-- Generator: Adobe Illustrator 25.2.0, SVG Export Plug-In . SVG Version: 6.00 Build 0)  -->
<svg version="1.1" id="Layer_1" xmlns="http://www.w3.org/2000/svg" xmlns:xlink="http://www.w3.org/1999/xlink" x="0px" y="0px"
	 viewBox="0 0 24 24" style="enable-background:new 0 0 24 24;" xml:space="preserve">
<path class="st0" d="M20.5,16v2.5c0,1.9-1.6,3.5-3.5,3.5H7c-1.9,0-3.5-1.6-3.5-3.5v-0.6c0-1.6,1.3-2.9,2.8-2.9h13.1
	C20,15,20.5,15.4,20.5,16z"/>
<path class="st0" d="M15.5,2h-7c-4,0-5,1-5,5v7.6c0.8-0.7,1.8-1.1,2.8-1.1h13.1c0.5,0,1-0.4,1-1V7C20.5,3,19.5,2,15.5,2z M13,10.8H8
	c-0.4,0-0.8-0.3-0.8-0.8S7.6,9.2,8,9.2h5c0.4,0,0.8,0.3,0.8,0.8S13.4,10.8,13,10.8z M16,7.2H8c-0.4,0-0.8-0.3-0.8-0.8S7.6,5.8,8,5.8
	h8c0.4,0,0.8,0.3,0.8,0.8S16.4,7.2,16,7.2z"/>
</svg>
