<?xml version="1.0" encoding="utf-8"?>
<!-- Generator: Adobe Illustrator 25.2.0, SVG Export Plug-In . SVG Version: 6.00 Build 0)  -->
<svg version="1.1" id="Layer_1" xmlns="http://www.w3.org/2000/svg" xmlns:xlink="http://www.w3.org/1999/xlink" x="0px" y="0px"
	 viewBox="0 0 24 24" style="enable-background:new 0 0 24 24;" xml:space="preserve">
<path class="st0" d="M15.2,22.3h-0.1c-4.4,0-6.6-1.8-7-5.7c0-0.4,0.3-0.8,0.7-0.8c0.4,0,0.8,0.3,0.8,0.7c0.3,3.1,1.8,4.3,5.5,4.3
	h0.1c4.1,0,5.5-1.4,5.5-5.5V8.7c0-4.1-1.4-5.5-5.5-5.5h-0.1c-3.7,0-5.2,1.2-5.5,4.4c0,0.4-0.4,0.7-0.8,0.7c-0.4,0-0.7-0.4-0.7-0.8
	c0.3-4,2.5-5.8,7-5.8h0.1c4.9,0,7,2.1,7,7v6.5C22.3,20.2,20.2,22.3,15.2,22.3z"/>
<path class="st0" d="M15,12.8H3.6c-0.4,0-0.8-0.3-0.8-0.8s0.3-0.8,0.8-0.8H15c0.4,0,0.8,0.3,0.8,0.8S15.4,12.8,15,12.8z"/>
<path class="st0" d="M5.9,16.1c-0.2,0-0.4-0.1-0.5-0.2L2,12.5c-0.3-0.3-0.3-0.8,0-1.1l3.4-3.3c0.3-0.3,0.8-0.3,1.1,0
	c0.3,0.3,0.3,0.8,0,1.1L3.6,12l2.8,2.8c0.3,0.3,0.3,0.8,0,1.1C6.2,16,6,16.1,5.9,16.1z"/>
</svg>
