<?xml version="1.0" encoding="utf-8"?>
<!-- Generator: Adobe Illustrator 25.2.0, SVG Export Plug-In . SVG Version: 6.00 Build 0)  -->
<svg version="1.1" id="Layer_1" xmlns="http://www.w3.org/2000/svg" xmlns:xlink="http://www.w3.org/1999/xlink" x="0px" y="0px"
	 viewBox="0 0 24 24" style="enable-background:new 0 0 24 24;" xml:space="preserve">
<path class="st0" d="M16.8,2h-2.6C11,2,9,4,9,7.2v4.1h6.2c0.4,0,0.8,0.3,0.8,0.8s-0.3,0.8-0.8,0.8H9v4C9,20,11,22,14.2,22h2.6
	c3.2,0,5.2-2,5.2-5.2V7.2C22,4,20,2,16.8,2z"/>
<path class="st0" d="M4.6,11.2l2.1-2.1C6.8,9,6.9,8.8,6.9,8.6c0-0.2-0.1-0.4-0.2-0.5c-0.3-0.3-0.8-0.3-1.1,0l-3.4,3.3
	c-0.3,0.3-0.3,0.8,0,1.1l3.4,3.3c0.3,0.3,0.8,0.3,1.1,0s0.3-0.8,0-1.1l-2.1-2.1H9v-1.5H4.6z"/>
</svg>
