<?xml version="1.0" encoding="utf-8"?>
<!-- Generator: Adobe Illustrator 25.2.0, SVG Export Plug-In . SVG Version: 6.00 Build 0)  -->
<svg version="1.1" id="Layer_1" xmlns="http://www.w3.org/2000/svg" xmlns:xlink="http://www.w3.org/1999/xlink" x="0px" y="0px"
	 viewBox="0 0 24 24" style="enable-background:new 0 0 24 24;" xml:space="preserve">
<path class="st0" d="M12,22.6c-0.7,0-1.4-0.1-1.9-0.5L4.6,19c-2.2-1.5-2.4-1.7-2.4-4.1V9.1c0-2.4,0.1-2.6,2.3-4.1l5.5-3.2
	c1.1-0.6,2.7-0.6,3.8,0L19.4,5c2.2,1.5,2.4,1.7,2.4,4.1v5.8c0,2.4-0.1,2.6-2.3,4.1l-5.5,3.2C13.4,22.5,12.7,22.6,12,22.6z M12,2.9
	c-0.4,0-0.8,0.1-1.1,0.2L5.4,6.3C3.8,7.4,3.8,7.4,3.8,9.1v5.8c0,1.7,0,1.7,1.7,2.8l5.5,3.1c0.6,0.3,1.7,0.3,2.2,0l5.5-3.2
	c1.6-1.1,1.6-1.1,1.6-2.8V9.1c0-1.7,0-1.7-1.7-2.8l-5.5-3.2C12.8,3,12.4,2.9,12,2.9z"/>
<path class="st0" d="M12,15.8c-2.1,0-3.8-1.7-3.8-3.8S9.9,8.2,12,8.2s3.8,1.7,3.8,3.8S14.1,15.8,12,15.8z M12,9.8
	c-1.2,0-2.2,1-2.2,2.2s1,2.2,2.2,2.2s2.2-1,2.2-2.2S13.2,9.8,12,9.8z"/>
</svg>
