<?xml version="1.0" encoding="utf-8"?>
<!-- Generator: Adobe Illustrator 25.2.0, SVG Export Plug-In . SVG Version: 6.00 Build 0)  -->
<svg version="1.1" id="Layer_1" xmlns="http://www.w3.org/2000/svg" xmlns:xlink="http://www.w3.org/1999/xlink" x="0px" y="0px"
	 viewBox="0 0 24 24" style="enable-background:new 0 0 24 24;" xml:space="preserve">
<g>
	<path class="st0" d="M12,22.6c-0.7,0-1.4-0.2-1.9-0.5L4.6,19c-2.2-1.5-2.4-1.7-2.4-4.1v-1.8c0-0.4,0.3-0.8,0.8-0.8s0.8,0.3,0.8,0.8
		v1.8c0,1.7,0,1.7,1.7,2.8l5.5,3.2c0.6,0.3,1.7,0.3,2.2,0l5.5-3.2c1.6-1.1,1.6-1.1,1.6-2.8V9.1c0-1.7,0-1.7-1.7-2.8l-5.5-3.2
		c-0.6-0.3-1.7-0.3-2.2,0L5.4,6.3C3.8,7.4,3.8,7.4,3.8,9.1c0,0.4-0.3,0.8-0.8,0.8S2.2,9.5,2.2,9.1c0-2.4,0.1-2.6,2.3-4.1l5.5-3.2
		c1.1-0.6,2.7-0.6,3.8,0L19.4,5c2.2,1.5,2.4,1.7,2.4,4.1v5.8c0,2.4-0.1,2.6-2.3,4.1l-5.5,3.2C13.4,22.5,12.7,22.6,12,22.6z"/>
</g>
<g>
	<path class="st0" d="M12,15.8c-2.1,0-3.8-1.7-3.8-3.8c0-2.1,1.7-3.8,3.8-3.8c2.1,0,3.8,1.7,3.8,3.8c0,0.4-0.3,0.8-0.8,0.8
		s-0.8-0.3-0.8-0.8c0-1.2-1-2.2-2.2-2.2c-1.2,0-2.2,1-2.2,2.2c0,1.2,1,2.2,2.2,2.2c0.3,0,0.6-0.1,0.9-0.2c0.4-0.2,0.8,0,1,0.4
		c0.2,0.4,0,0.8-0.4,1C13,15.6,12.5,15.8,12,15.8z"/>
</g>
</svg>
