<?xml version="1.0" encoding="utf-8"?>
<!-- Generator: Adobe Illustrator 25.2.0, SVG Export Plug-In . SVG Version: 6.00 Build 0)  -->
<svg version="1.1" id="Layer_1" xmlns="http://www.w3.org/2000/svg" xmlns:xlink="http://www.w3.org/1999/xlink" x="0px" y="0px"
	 viewBox="0 0 24 24" style="enable-background:new 0 0 24 24;" xml:space="preserve">
<path class="st0" d="M18.9,5.4l-5.2-3c-1-0.6-2.5-0.6-3.5,0L5,5.4C3,6.8,2.8,7.1,2.8,9.3v5.4c0,2.2,0.1,2.4,2.2,3.9l5.2,3
	c0.5,0.3,1.1,0.4,1.8,0.4s1.3-0.1,1.8-0.4l5.2-3c2.1-1.4,2.2-1.6,2.2-3.8V9.3C21.2,7.1,21.1,6.8,18.9,5.4z M12,15.3
	c-1.8,0-3.3-1.5-3.3-3.2s1.5-3.2,3.3-3.2s3.2,1.5,3.2,3.2S13.8,15.3,12,15.3z"/>
</svg>
