<?xml version="1.0" encoding="utf-8"?>
<!-- Generator: Adobe Illustrator 25.2.0, SVG Export Plug-In . SVG Version: 6.00 Build 0)  -->
<svg version="1.1" id="Layer_1" xmlns="http://www.w3.org/2000/svg" xmlns:xlink="http://www.w3.org/1999/xlink" x="0px" y="0px"
	 viewBox="0 0 24 24" style="enable-background:new 0 0 24 24;" xml:space="preserve">
<path class="st0" d="M21.3,12.2h-3.5c-1,0-1.8,0.5-2.3,1.4l-0.8,1.7c-0.2,0.4-0.6,0.6-1,0.6h-3.3c-0.3,0-0.8-0.1-1-0.6l-0.8-1.7
	c-0.4-0.9-1.3-1.4-2.3-1.4H2.7c-0.4,0-0.7,0.3-0.7,0.7v3.3C2,19.8,4.2,22,7.8,22h8.4c3.4,0,5.5-1.9,5.8-5.2v-3.9
	C22,12.6,21.7,12.2,21.3,12.2z"/>
<path class="st0" d="M16.2,2H7.8C4.2,2,2,4.2,2,7.8v3c0.2-0.1,0.5-0.1,0.7-0.1h3.5c1.6,0,2.9,0.9,3.6,2.2l0.8,1.5h2.9l0.8-1.5
	c0.7-1.4,2.1-2.2,3.6-2.2h3.5c0.2,0,0.5,0,0.7,0.1v-3C22,4.2,19.8,2,16.2,2z M10.4,5.4h3.1c0.4,0,0.7,0.3,0.7,0.7
	c0,0.4-0.3,0.7-0.7,0.7h-3.1c-0.4,0-0.7-0.3-0.7-0.7C9.8,5.7,10.1,5.4,10.4,5.4z M14.3,9.6H9.7C9.3,9.6,9,9.3,9,8.9
	c0-0.4,0.3-0.7,0.7-0.7h4.7c0.4,0,0.7,0.3,0.7,0.7C15,9.3,14.7,9.6,14.3,9.6z"/>
</svg>
