<?xml version="1.0" encoding="utf-8"?>
<!-- Generator: Adobe Illustrator 25.2.0, SVG Export Plug-In . SVG Version: 6.00 Build 0)  -->
<svg version="1.1" id="Layer_1" xmlns="http://www.w3.org/2000/svg" xmlns:xlink="http://www.w3.org/1999/xlink" x="0px" y="0px"
	 viewBox="0 0 24 24" style="enable-background:new 0 0 24 24;" xml:space="preserve">
<g>
	<path class="st0" d="M15,22.8H9c-5.4,0-7.8-2.3-7.8-7.8V9c0-5.4,2.3-7.8,7.8-7.8h6c5.4,0,7.8,2.3,7.8,7.8v6
		C22.8,20.4,20.4,22.8,15,22.8z M9,2.8C4.4,2.8,2.8,4.4,2.8,9v6c0,4.6,1.6,6.2,6.2,6.2h6c4.6,0,6.2-1.6,6.2-6.2V9
		c0-4.6-1.6-6.2-6.2-6.2H9z"/>
</g>
<g>
	<path class="st0" d="M13.8,17.8h-3.5c-1.1,0-2-0.5-2.5-1.5l-0.9-1.8c-0.2-0.4-0.6-0.7-1.1-0.7H2c-0.4,0-0.8-0.3-0.8-0.8
		s0.3-0.8,0.8-0.8h3.8c1,0,2,0.6,2.5,1.5l0.9,1.8c0.3,0.6,0.8,0.7,1.1,0.7h3.5c0.5,0,0.9-0.3,1.1-0.7l0.9-1.8
		c0.5-0.9,1.4-1.5,2.5-1.5H22c0.4,0,0.8,0.3,0.8,0.8s-0.3,0.8-0.8,0.8h-3.7c-0.5,0-0.9,0.3-1.1,0.7l-0.9,1.8
		C15.8,17.2,14.8,17.8,13.8,17.8z"/>
</g>
<g>
	<path class="st0" d="M13.7,7.8h-3.3C9.9,7.8,9.6,7.4,9.6,7s0.3-0.8,0.8-0.8h3.3c0.4,0,0.8,0.3,0.8,0.8S14.1,7.8,13.7,7.8z"/>
</g>
<g>
	<path class="st0" d="M14.5,10.8h-5c-0.4,0-0.8-0.3-0.8-0.8s0.3-0.8,0.8-0.8h5c0.4,0,0.8,0.3,0.8,0.8S14.9,10.8,14.5,10.8z"/>
</g>
</svg>
