<?xml version="1.0" encoding="utf-8"?>
<!-- Generator: Adobe Illustrator 25.2.0, SVG Export Plug-In . SVG Version: 6.00 Build 0)  -->
<svg version="1.1" id="Layer_1" xmlns="http://www.w3.org/2000/svg" xmlns:xlink="http://www.w3.org/1999/xlink" x="0px" y="0px"
	 viewBox="0 0 24 24" style="enable-background:new 0 0 24 24;" xml:space="preserve">
<path class="st0" d="M12,19.2c-1,0-2-0.5-2.6-1.3c-0.2-0.3-0.2-0.8,0.1-1s0.8-0.2,1.1,0.1c0.3,0.4,0.8,0.7,1.4,0.7
	c1,0,1.8-0.8,1.8-1.8c0-0.4-0.1-0.8-0.4-1.1c-0.2-0.3-0.2-0.8,0.1-1.1s0.8-0.2,1.1,0.1c0.4,0.6,0.7,1.2,0.7,2
	C15.2,17.8,13.8,19.2,12,19.2z"/>
<path class="st0" d="M17,22.8H7c-0.4,0-0.7,0-1.1,0c-0.4,0-0.7-0.4-0.7-0.8c0-0.4,0.4-0.7,0.8-0.7c0.3,0,0.6,0,1,0h10
	c3.6,0,4.2-0.7,4.2-4.2v-2c0-3.5-0.7-4.1-3.3-4.2c-0.3,0-0.6,0-1,0H7c-3.6,0-4.2,0.7-4.2,4.2v2c0,1.7,0.2,2.8,0.7,3.3
	c0.3,0.3,0.2,0.8-0.1,1.1c-0.3,0.3-0.8,0.2-1-0.1c-0.7-0.9-1-2.1-1-4.2v-2c0-4.4,1.3-5.8,5.8-5.8h10c0.4,0,0.7,0,1,0
	c4,0.2,4.7,2.2,4.7,5.7v2C22.8,21.4,21.4,22.8,17,22.8z"/>
<path class="st0" d="M6,10.8c-0.4,0-0.8-0.3-0.8-0.8V8c0-2.9,0.7-6.8,6.8-6.8c4.1,0,6.2,1.3,6.6,4.2c0.1,0.4-0.2,0.8-0.6,0.9
	c-0.4,0.1-0.8-0.2-0.9-0.6c-0.2-1.5-1-2.9-5.2-2.9C7.6,2.8,6.8,4.8,6.8,8v2C6.8,10.4,6.4,10.8,6,10.8z"/>
<path class="st0" d="M2,22.8c-0.2,0-0.4-0.1-0.5-0.2c-0.3-0.3-0.3-0.8,0-1.1l20-20c0.3-0.3,0.8-0.3,1.1,0c0.3,0.3,0.3,0.8,0,1.1
	l-20,20C2.4,22.7,2.2,22.8,2,22.8z"/>
</svg>
