<?xml version="1.0" encoding="utf-8"?>
<!-- Generator: Adobe Illustrator 25.2.0, SVG Export Plug-In . SVG Version: 6.00 Build 0)  -->
<svg version="1.1" id="Layer_1" xmlns="http://www.w3.org/2000/svg" xmlns:xlink="http://www.w3.org/1999/xlink" x="0px" y="0px"
	 viewBox="0 0 24 24" style="enable-background:new 0 0 24 24;" xml:space="preserve">
<path class="st0" d="M13.6,15.7c0,0.9-0.7,1.6-1.6,1.6c-0.6,0-1.2-0.4-1.4-0.9l2.2-2.2C13.3,14.5,13.6,15.1,13.6,15.7z"/>
<path class="st0" d="M21.8,2.2c-0.3-0.3-0.8-0.3-1.1,0L17.9,5c-0.8-2-2.7-3-5.9-3C6.4,2,5.7,5.6,5.7,8.3v1.2c0,0,0,0,0,0
	C2.9,9.9,2,11.3,2,14.8v1.9c0,1.6,0.2,2.8,0.7,3.6l-0.4,0.5c-0.3,0.3-0.3,0.8,0,1.1C2.4,21.9,2.6,22,2.8,22s0.4-0.1,0.5-0.2
	L21.8,3.3C22.1,3,22.1,2.5,21.8,2.2z M7.4,9.4c-0.1,0-0.2,0-0.2,0V8.3C7.1,5.3,8,3.4,12,3.4c3.4,0,4.5,1.3,4.8,2.8l-3.3,3.3H7.4z"/>
<path class="st0" d="M22,14.8v1.9c0,4.1-1.2,5.4-5.4,5.4H7.4c-0.9,0-1.3-1.1-0.7-1.7l2.8-2.8c0.1,0.1,0.1,0.2,0.2,0.3
	c0.7,0.8,1.7,1.2,2.9,0.9c0.1,0,0.2,0,0.3-0.1c0.1,0,0.2-0.1,0.2-0.1c0.2-0.1,0.4-0.2,0.6-0.3c0.1,0,0.1-0.1,0.2-0.1
	c0.2-0.1,0.3-0.3,0.4-0.4c0.1,0,0.1-0.1,0.1-0.2c0.1-0.2,0.2-0.4,0.3-0.6c0-0.1,0.1-0.2,0.1-0.2c0-0.1,0.1-0.2,0.1-0.3
	c0.2-1.1-0.2-2.2-0.9-2.9c-0.1-0.1-0.2-0.2-0.3-0.2l3.1-3.1c0,0,0.1-0.1,0.1-0.1c0.4-0.3,0.9-0.5,1.4-0.4c0.1,0,0.2,0,0.3,0
	c0.2,0,0.3,0.1,0.5,0.1s0.3,0.1,0.5,0.1c0.3,0.1,0.5,0.2,0.8,0.4s0.4,0.3,0.6,0.5c0.1,0.1,0.2,0.2,0.2,0.4c0.1,0.1,0.1,0.2,0.2,0.4
	c0.1,0.1,0.1,0.3,0.2,0.4c0.1,0.2,0.1,0.4,0.2,0.6c0,0.1,0.1,0.3,0.1,0.5c0,0.1,0,0.3,0.1,0.5C22,13.8,22,14.3,22,14.8z"/>
</svg>
