<?xml version="1.0" encoding="utf-8"?>
<!-- Generator: Adobe Illustrator 25.2.0, SVG Export Plug-In . SVG Version: 6.00 Build 0)  -->
<svg version="1.1" id="Layer_1" xmlns="http://www.w3.org/2000/svg" xmlns:xlink="http://www.w3.org/1999/xlink" x="0px" y="0px"
	 viewBox="0 0 24 24" style="enable-background:new 0 0 24 24;" xml:space="preserve">
<g>
	<path class="st0" d="M5.2,22.8c-0.4,0-0.8-0.3-0.8-0.8V2c0-0.4,0.3-0.8,0.8-0.8S5.9,1.6,5.9,2v20C5.9,22.4,5.6,22.8,5.2,22.8z"/>
</g>
<g>
	<path class="st0" d="M16.4,16.8H5.2c-0.4,0-0.8-0.3-0.8-0.8s0.3-0.8,0.8-0.8h11.2c1.1,0,1.6-0.3,1.7-0.5c0.1-0.2-0.1-0.8-0.8-1.6
		L16,11.9c-0.5-0.4-0.8-1.1-0.8-1.8c0-0.8,0.3-1.5,0.8-2.1l1.2-1.2c0.7-0.7,1-1.3,0.9-1.6C18,5,17.4,4.8,16.4,4.8
		c-0.4,0-0.8-0.3-0.8-0.8s0.3-0.8,0.8-0.8c2.2,0,2.9,0.9,3.1,1.4c0.2,0.5,0.4,1.7-1.2,3.2l-1.2,1.2c-0.3,0.3-0.4,0.6-0.4,0.9
		c0,0.3,0.1,0.6,0.3,0.8l1.2,1.2c1.5,1.5,1.4,2.7,1.2,3.2C19.2,15.8,18.5,16.8,16.4,16.8z"/>
</g>
<g>
	<path class="st0" d="M12,4.8H5.2C4.7,4.8,4.4,4.4,4.4,4s0.3-0.8,0.8-0.8H12c0.4,0,0.8,0.3,0.8,0.8S12.4,4.8,12,4.8z"/>
</g>
</svg>
