<?xml version="1.0" encoding="utf-8"?>
<!-- Generator: Adobe Illustrator 25.2.0, SVG Export Plug-In . SVG Version: 6.00 Build 0)  -->
<svg version="1.1" id="Layer_1" xmlns="http://www.w3.org/2000/svg" xmlns:xlink="http://www.w3.org/1999/xlink" x="0px" y="0px"
	 viewBox="0 0 24 24" style="enable-background:new 0 0 24 24;" xml:space="preserve">
<path class="st0" d="M18,12.3l-1.2-1.2c-0.3-0.2-0.5-0.6-0.5-1c0-0.4,0.2-0.9,0.5-1.2L18,7.7c1-1,1.4-2,1.1-2.8
	c-0.3-0.8-1.3-1.2-2.8-1.2H5.9V2.8C5.9,2.3,5.6,2,5.2,2C4.7,2,4.4,2.3,4.4,2.8v18.5c0,0.4,0.3,0.8,0.8,0.8c0.4,0,0.8-0.3,0.8-0.8
	v-4.9h10.5c1.4,0,2.4-0.4,2.7-1.2S19,13.4,18,12.3z"/>
</svg>
